<svg width="208" style="background-color: #FFF" height="37" viewBox="0 0 208 37" fill="none" xmlns="http://www.w3.org/2000/svg">
<path d="M24.0426 15.6138C23.9727 16.0956 23.6549 16.7503 23.2904 17.3194C22.8305 18.0376 22.1007 18.5406 21.2654 18.7152L17.586 19.4846C16.9946 19.6083 16.4584 19.9178 16.0557 20.3678L13.6432 23.0645C13.1898 23.5714 12.8729 23.4505 12.8729 22.7707C12.8674 22.796 11.6755 25.8696 14.8341 27.6915C16.0478 28.3915 17.7947 28.14 19.0083 27.44L25.4387 23.7309C27.8436 22.3438 29.5415 19.9972 30.1059 17.2809C30.1282 17.1734 30.1455 17.0656 30.1641 16.9578L24.0426 15.6138Z" fill="url(#paint0_linear_10_146071)"/>
<path d="M22.3747 11.9086C23.5883 12.6086 24.0842 13.6508 24.0842 15.0508C24.0842 15.2409 24.0692 15.4287 24.0424 15.6136L26.6334 16.7266L30.1638 16.9576C30.6159 14.3413 29.73 11.6483 28.1418 9.50775C26.9466 7.89687 25.4086 6.49893 23.5597 5.43245C22.0577 4.56612 20.4969 3.99533 18.9288 3.68213L17.1669 5.96378L16.6104 8.58371L22.3747 11.9086Z" fill="url(#paint1_linear_10_146071)"/>
<path d="M1.63588 13.8289C1.63522 13.8309 1.63705 13.8315 1.63774 13.8295C1.77369 13.4217 1.94418 12.9668 2.15701 12.4807C3.26876 9.94196 5.41118 8.24873 8.04687 7.38541C10.6826 6.5221 13.5604 6.82471 15.9625 8.21027L16.6105 8.584L18.9289 3.68242C11.5548 2.20961 4.01823 6.5419 1.64526 13.8005C1.64412 13.8039 1.64 13.8161 1.63588 13.8289Z" fill="url(#paint2_linear_10_146071)"/>
<path d="M18.7565 27.4401C17.5429 28.1402 16.0476 28.1402 14.834 27.4401C14.6693 27.3451 14.514 27.2383 14.3671 27.1226L12.2327 28.59L10.3931 31.5628C12.435 33.262 15.0865 33.8083 17.7361 33.5045C19.7301 33.2759 21.7109 32.6442 23.5598 31.5777C25.0618 30.7114 26.3369 29.6464 27.3925 28.4462L26.2956 25.781L24.5209 24.1152L18.7565 27.4401Z" fill="url(#paint3_linear_10_146071)"/>
<path d="M14.3672 27.1226C13.4321 26.3861 12.8729 25.2564 12.8729 24.0464V23.9257V13.8484C12.8729 13.2785 13.0408 13.1816 13.5348 13.4666C12.7739 13.0277 11.0161 11.521 8.8458 12.7729C7.63219 13.4729 6.63281 15.0181 6.63281 16.4182V23.8363C6.63281 26.6106 8.06973 29.5044 10.1422 31.3509C10.2242 31.424 10.309 31.4928 10.3931 31.5628L14.3672 27.1226Z" fill="url(#paint4_linear_10_146071)"/>
<path d="M27.2437 8.41089C27.2423 8.40929 27.2409 8.41058 27.2423 8.41219C27.5278 8.73372 27.8369 9.10869 28.1518 9.53584C29.7967 11.7671 30.4113 14.5931 29.8418 17.3052C29.2723 20.0173 27.5711 22.3559 25.1689 23.7414L24.521 24.1152L27.3927 28.4461C32.3564 22.8024 32.3693 14.1156 27.2637 8.43321C27.2612 8.43049 27.2528 8.42087 27.2437 8.41089Z" fill="url(#paint5_linear_10_146071)"/>
<path d="M6.88429 16.4177C6.88428 15.0177 7.6319 13.724 8.84552 13.024C9.01027 12.929 9.18053 12.848 9.35423 12.7788L9.1494 10.1984L7.71035 7.24609C5.2164 8.16313 3.19907 10.0583 2.13762 12.5027C1.33882 14.3422 0.896005 16.3719 0.895996 18.5048C0.895996 20.2375 1.1816 21.8733 1.69418 23.3866L4.55296 23.7702L6.88429 23.0675V16.4177Z" fill="url(#paint6_linear_10_146071)"/>
<path d="M9.35433 12.7787C10.4603 12.338 11.7192 12.4189 12.7681 13.0239L12.8727 13.0843L21.2699 17.9278C21.859 18.2676 21.8054 18.6019 21.1397 18.7411L21.6241 18.6398C22.2615 18.5066 22.8438 18.1808 23.2892 17.7061C24.0549 16.8899 24.336 15.9052 24.336 15.0507C24.336 13.6506 23.5884 12.357 22.3747 11.6569L15.9443 7.94786C13.5395 6.56074 10.6564 6.26496 8.01958 7.13484C7.91527 7.16924 7.81316 7.20826 7.71045 7.24602L9.35433 12.7787Z" fill="url(#paint7_linear_10_146071)"/>
<path d="M19.1363 33.2757C19.1384 33.2753 19.138 33.2734 19.1359 33.2738C18.7144 33.3601 18.2348 33.4401 17.7071 33.4989C14.9505 33.8064 12.1935 32.9252 10.1272 31.0764C8.06104 29.2277 6.88445 26.5864 6.88445 23.8153L6.88444 23.0679L1.69434 23.387C4.10469 30.5035 11.6284 34.858 19.1069 33.2818C19.1105 33.2811 19.1231 33.2786 19.1363 33.2757Z" fill="url(#paint8_linear_10_146071)"/>
<path d="M45.7216 27.5V10.0455H56.9034V12.696H48.8835V17.4347H56.1364V20.0852H48.8835V27.5H45.7216ZM62.733 10.0455V27.5H59.6477V10.0455H62.733ZM71.6158 27.7557C70.3374 27.7557 69.2294 27.4744 68.2919 26.9119C67.3544 26.3494 66.6271 25.5625 66.1101 24.5511C65.5987 23.5398 65.343 22.358 65.343 21.0057C65.343 19.6534 65.5987 18.4687 66.1101 17.4517C66.6271 16.4347 67.3544 15.6449 68.2919 15.0824C69.2294 14.5199 70.3374 14.2386 71.6158 14.2386C72.8942 14.2386 74.0021 14.5199 74.9396 15.0824C75.8771 15.6449 76.6016 16.4347 77.1129 17.4517C77.63 18.4687 77.8885 19.6534 77.8885 21.0057C77.8885 22.358 77.63 23.5398 77.1129 24.5511C76.6016 25.5625 75.8771 26.3494 74.9396 26.9119C74.0021 27.4744 72.8942 27.7557 71.6158 27.7557ZM71.6328 25.2841C72.326 25.2841 72.9055 25.0937 73.3714 24.7131C73.8374 24.3267 74.1839 23.8097 74.4112 23.1619C74.6442 22.5142 74.7607 21.7926 74.7607 20.9972C74.7607 20.196 74.6442 19.4716 74.4112 18.8239C74.1839 18.1705 73.8374 17.6506 73.3714 17.2642C72.9055 16.8778 72.326 16.6847 71.6328 16.6847C70.9226 16.6847 70.3317 16.8778 69.8601 17.2642C69.3942 17.6506 69.0447 18.1705 68.8118 18.8239C68.5845 19.4716 68.4709 20.196 68.4709 20.9972C68.4709 21.7926 68.5845 22.5142 68.8118 23.1619C69.0447 23.8097 69.3942 24.3267 69.8601 24.7131C70.3317 25.0937 70.9226 25.2841 71.6328 25.2841ZM82.8338 27.5L79.1349 14.4091H82.2798L84.581 23.6136H84.7003L87.0526 14.4091H90.1634L92.5156 23.5625H92.6435L94.9105 14.4091H98.0639L94.3565 27.5H91.1435L88.6889 18.6534H88.5099L86.0554 27.5H82.8338ZM100.354 27.5V10.0455H103.44V16.5739H103.567C103.727 16.2557 103.951 15.9176 104.241 15.5597C104.531 15.196 104.923 14.8864 105.417 14.6307C105.911 14.3693 106.542 14.2386 107.309 14.2386C108.32 14.2386 109.232 14.4972 110.045 15.0142C110.863 15.5256 111.511 16.2841 111.988 17.2898C112.471 18.2898 112.712 19.517 112.712 20.9716C112.712 22.4091 112.477 23.6307 112.005 24.6364C111.533 25.642 110.891 26.4091 110.079 26.9375C109.266 27.4659 108.346 27.7301 107.317 27.7301C106.567 27.7301 105.945 27.6051 105.451 27.3551C104.957 27.1051 104.559 26.804 104.258 26.4517C103.962 26.0937 103.732 25.7557 103.567 25.4375H103.388V27.5H100.354ZM103.38 20.9545C103.38 21.8011 103.499 22.5426 103.738 23.179C103.982 23.8153 104.332 24.3125 104.786 24.6705C105.246 25.0227 105.803 25.1989 106.457 25.1989C107.138 25.1989 107.71 25.017 108.17 24.6534C108.63 24.2841 108.977 23.7812 109.21 23.1449C109.448 22.5028 109.567 21.7727 109.567 20.9545C109.567 20.142 109.451 19.4205 109.218 18.7898C108.985 18.1591 108.638 17.6648 108.178 17.3068C107.718 16.9489 107.144 16.7699 106.457 16.7699C105.798 16.7699 105.238 16.9432 104.778 17.2898C104.317 17.6364 103.968 18.1222 103.729 18.7472C103.496 19.3722 103.38 20.108 103.38 20.9545ZM115.335 27.5V14.4091H118.42V27.5H115.335ZM116.886 12.5511C116.398 12.5511 115.977 12.3892 115.625 12.0653C115.273 11.7358 115.097 11.3409 115.097 10.8807C115.097 10.4148 115.273 10.0199 115.625 9.69602C115.977 9.36648 116.398 9.2017 116.886 9.2017C117.381 9.2017 117.801 9.36648 118.148 9.69602C118.5 10.0199 118.676 10.4148 118.676 10.8807C118.676 11.3409 118.5 11.7358 118.148 12.0653C117.801 12.3892 117.381 12.5511 116.886 12.5511ZM128.13 14.4091V16.7955H120.604V14.4091H128.13ZM122.462 11.2727H125.548V23.5625C125.548 23.9773 125.61 24.2955 125.735 24.517C125.866 24.733 126.036 24.8807 126.246 24.9602C126.457 25.0398 126.69 25.0795 126.945 25.0795C127.138 25.0795 127.315 25.0653 127.474 25.0369C127.638 25.0085 127.763 24.983 127.849 24.9602L128.369 27.3722C128.204 27.429 127.968 27.4915 127.661 27.5597C127.36 27.6278 126.991 27.6676 126.553 27.679C125.781 27.7017 125.085 27.5852 124.465 27.3295C123.846 27.0682 123.354 26.6648 122.991 26.1193C122.633 25.5739 122.457 24.892 122.462 24.0739V11.2727ZM136.365 27.7557C135.053 27.7557 133.919 27.483 132.964 26.9375C132.016 26.3864 131.286 25.608 130.774 24.6023C130.263 23.5909 130.007 22.4006 130.007 21.0312C130.007 19.6847 130.263 18.5028 130.774 17.4858C131.291 16.4631 132.013 15.6676 132.939 15.0994C133.865 14.5256 134.953 14.2386 136.203 14.2386C137.01 14.2386 137.771 14.3693 138.487 14.6307C139.209 14.8864 139.845 15.2841 140.396 15.8239C140.953 16.3636 141.391 17.0511 141.709 17.8864C142.027 18.7159 142.186 19.7045 142.186 20.8523V21.7983H131.456V19.7188H139.229C139.223 19.1278 139.095 18.6023 138.845 18.142C138.595 17.6761 138.246 17.3097 137.797 17.0426C137.354 16.7756 136.837 16.642 136.246 16.642C135.615 16.642 135.061 16.7955 134.584 17.1023C134.107 17.4034 133.734 17.8011 133.467 18.2955C133.206 18.7841 133.072 19.321 133.067 19.9062V21.7216C133.067 22.483 133.206 23.1364 133.484 23.6818C133.763 24.2216 134.152 24.6364 134.652 24.9261C135.152 25.2102 135.737 25.3523 136.408 25.3523C136.857 25.3523 137.263 25.2898 137.626 25.1648C137.99 25.0341 138.305 24.8438 138.572 24.5938C138.839 24.3438 139.041 24.0341 139.178 23.6648L142.058 23.9886C141.876 24.75 141.53 25.4148 141.018 25.983C140.513 26.5455 139.865 26.983 139.075 27.2955C138.286 27.6023 137.382 27.7557 136.365 27.7557ZM157.388 21.6364H160.252L161.948 23.8352L163.158 25.267L166.065 29H162.996L161.019 26.4943L160.175 25.3011L157.388 21.6364ZM166.482 18.7727C166.482 20.6534 166.13 22.2642 165.425 23.6051C164.727 24.9403 163.772 25.9631 162.562 26.6733C161.357 27.3835 159.991 27.7386 158.462 27.7386C156.934 27.7386 155.565 27.3835 154.354 26.6733C153.15 25.9574 152.195 24.9318 151.491 23.5966C150.792 22.2557 150.442 20.6477 150.442 18.7727C150.442 16.892 150.792 15.2841 151.491 13.9489C152.195 12.608 153.15 11.5824 154.354 10.8722C155.565 10.1619 156.934 9.80682 158.462 9.80682C159.991 9.80682 161.357 10.1619 162.562 10.8722C163.772 11.5824 164.727 12.608 165.425 13.9489C166.13 15.2841 166.482 16.892 166.482 18.7727ZM163.303 18.7727C163.303 17.4489 163.096 16.3324 162.681 15.4233C162.272 14.5085 161.704 13.8182 160.977 13.3523C160.249 12.8807 159.411 12.6449 158.462 12.6449C157.513 12.6449 156.675 12.8807 155.948 13.3523C155.221 13.8182 154.65 14.5085 154.235 15.4233C153.826 16.3324 153.621 17.4489 153.621 18.7727C153.621 20.0966 153.826 21.2159 154.235 22.1307C154.65 23.0398 155.221 23.7301 155.948 24.2017C156.675 24.6676 157.513 24.9006 158.462 24.9006C159.411 24.9006 160.249 24.6676 160.977 24.2017C161.704 23.7301 162.272 23.0398 162.681 22.1307C163.096 21.2159 163.303 20.0966 163.303 18.7727ZM172.06 27.5L168.362 14.4091H171.506L173.808 23.6136H173.927L176.279 14.4091H179.39L181.742 23.5625H181.87L184.137 14.4091H187.29L183.583 27.5H180.37L177.915 18.6534H177.737L175.282 27.5H172.06ZM189.445 27.5V14.4091H192.53V27.5H189.445ZM190.996 12.5511C190.507 12.5511 190.087 12.3892 189.734 12.0653C189.382 11.7358 189.206 11.3409 189.206 10.8807C189.206 10.4148 189.382 10.0199 189.734 9.69602C190.087 9.36648 190.507 9.2017 190.996 9.2017C191.49 9.2017 191.911 9.36648 192.257 9.69602C192.609 10.0199 192.786 10.4148 192.786 10.8807C192.786 11.3409 192.609 11.7358 192.257 12.0653C191.911 12.3892 191.49 12.5511 190.996 12.5511ZM198.515 23.392L198.506 19.6676H199.001L203.705 14.4091H207.31L201.523 20.8523H200.884L198.515 23.392ZM195.702 27.5V10.0455H198.788V27.5H195.702ZM203.918 27.5L199.657 21.5426L201.737 19.3693L207.609 27.5H203.918Z" fill="#111928"/>
<defs>
<linearGradient id="paint0_linear_10_146071" x1="19.8329" y1="25.8347" x2="22.8042" y2="15.4855" gradientUnits="userSpaceOnUse">
<stop stop-color="#6C31C9"/>
<stop offset="1" stop-color="#9C6BE9"/>
</linearGradient>
<linearGradient id="paint1_linear_10_146071" x1="26.676" y1="13.2136" x2="18.8601" y2="5.42512" gradientUnits="userSpaceOnUse">
<stop stop-color="#9C6BE9"/>
<stop offset="1" stop-color="#6C31C8"/>
</linearGradient>
<linearGradient id="paint2_linear_10_146071" x1="16.1554" y1="8.13595" x2="4.36472" y2="8.881" gradientUnits="userSpaceOnUse">
<stop stop-color="#6C31C8"/>
<stop offset="1" stop-color="#A373EE"/>
</linearGradient>
<linearGradient id="paint3_linear_10_146071" x1="15.358" y1="30.4536" x2="25.9467" y2="27.5963" gradientUnits="userSpaceOnUse">
<stop stop-color="#AD7FF5"/>
<stop offset="1" stop-color="#A374EE"/>
</linearGradient>
<linearGradient id="paint4_linear_10_146071" x1="7.75797" y1="18.2005" x2="15.2756" y2="25.9904" gradientUnits="userSpaceOnUse">
<stop stop-color="#6C31C8"/>
<stop offset="1" stop-color="#AC7EF4"/>
</linearGradient>
<linearGradient id="paint5_linear_10_146071" x1="24.9215" y1="23.82" x2="30.1668" y2="13.2462" gradientUnits="userSpaceOnUse">
<stop stop-color="#A374EE"/>
<stop offset="1" stop-color="#6C31C9"/>
</linearGradient>
<linearGradient id="paint6_linear_10_146071" x1="5.95947" y1="12.0152" x2="3.15266" y2="22.565" gradientUnits="userSpaceOnUse">
<stop stop-color="#A373EE"/>
<stop offset="1" stop-color="#844ED9"/>
</linearGradient>
<linearGradient id="paint7_linear_10_146071" x1="20.2887" y1="11.5134" x2="10.0318" y2="14.0671" gradientUnits="userSpaceOnUse">
<stop stop-color="#6C31C8"/>
<stop offset="1" stop-color="#A474EF"/>
</linearGradient>
<linearGradient id="paint8_linear_10_146071" x1="6.94411" y1="23.5566" x2="13.482" y2="33.3911" gradientUnits="userSpaceOnUse">
<stop stop-color="#8650DB"/>
<stop offset="1" stop-color="#AB7DF3"/>
</linearGradient>
</defs>
</svg>
